<svg width="32" height="32" viewBox="0 0 32 32" fill="none" xmlns="http://www.w3.org/2000/svg">
<path d="M17.3561 2.66699C19.7555 2.66699 20.2623 2.69399 21.488 2.74699C22.9006 2.81399 23.8744 3.03999 24.7142 3.37399C25.5939 3.70699 26.3407 4.17399 27.0736 4.90699C27.8204 5.63999 28.2732 6.38699 28.6201 7.26699C28.9531 8.10699 29.167 9.07999 29.233 10.507C29.3 11.774 29.313 12.267 29.313 14.934V17.067C29.313 19.734 29.3 20.227 29.233 21.494C29.21 22.659 28.987 23.764 28.5972 24.788L28.6191 24.721C28.2722 25.601 27.8194 26.348 27.0865 27.081C26.3397 27.828 25.5939 28.281 24.7142 28.628C23.8744 28.961 22.9016 29.175 21.488 29.241C20.2214 29.308 19.7155 29.321 17.0492 29.321H14.9297C12.2634 29.321 11.7706 29.308 10.4909 29.241C9.32621 29.218 8.2215 28.995 7.19777 28.605L7.26475 28.627C6.342 28.274 5.5552 27.753 4.90637 27.094L4.90537 27.093C4.23955 26.441 3.71369 25.649 3.37378 24.764L3.35878 24.719C2.99188 23.763 2.76894 22.657 2.74594 21.502V21.492C2.69296 20.45 2.66296 19.229 2.66296 18.002C2.66296 17.776 2.66396 17.55 2.66596 17.325V17.359V14.626C2.66596 12.226 2.69296 11.719 2.74594 10.493C2.81292 9.07999 3.03886 8.10599 3.35878 7.26599C3.70569 6.38599 4.15857 5.63899 4.90537 4.90599C5.55021 4.23899 6.339 3.71599 7.22177 3.38699L7.26475 3.37299C8.2195 3.00199 9.32421 2.77399 10.4789 2.74699H10.4909C11.7176 2.69399 12.2235 2.66699 14.6228 2.66699H17.3561ZM17.3831 5.06699H14.5968C12.2904 5.06699 11.7976 5.09399 10.5979 5.14699C9.30522 5.19999 8.5984 5.41399 8.13153 5.59999C7.50469 5.83999 7.06481 6.13299 6.59893 6.59999C6.13305 7.06699 5.83913 7.50699 5.59919 8.13299C5.42624 8.59999 5.1993 9.30599 5.14631 10.613C5.09333 11.813 5.06633 12.293 5.06633 14.613V17.386C5.06633 19.706 5.09333 20.186 5.14631 21.386C5.1993 22.679 5.41324 23.386 5.59919 23.853C5.83913 24.48 6.13205 24.92 6.59893 25.386C7.06581 25.852 7.50569 26.146 8.13153 26.386C8.5984 26.573 9.30422 26.786 10.6109 26.839C11.9035 26.906 12.3704 26.919 15.2497 26.919H16.7293C19.6215 26.919 20.0754 26.906 21.381 26.839C22.6737 26.786 23.3805 26.572 23.8474 26.386C24.4742 26.146 24.9141 25.853 25.38 25.386C25.8459 24.919 26.1398 24.479 26.3797 23.853C26.5667 23.386 26.7796 22.68 26.8326 21.386C26.8996 20.079 26.9126 19.626 26.9126 16.733V15.266C26.9126 12.373 26.8996 11.906 26.8326 10.599C26.7796 9.30599 26.5657 8.59899 26.3797 8.13199C26.1538 7.53099 25.8129 7.01799 25.381 6.59999L25.38 6.59899C24.9601 6.16599 24.4482 5.82499 23.8754 5.60799L23.8474 5.59899C23.1156 5.32299 22.2698 5.15799 21.386 5.14599H21.381C20.3533 5.09399 19.1506 5.06399 17.94 5.06399C17.744 5.06399 17.5481 5.06499 17.3521 5.06599H17.3821L17.3831 5.06699ZM15.9965 9.14699C19.7765 9.14699 22.8417 12.212 22.8417 15.994C22.8417 19.776 19.7775 22.841 15.9965 22.841C12.2165 22.841 9.15126 19.776 9.15126 15.994C9.15126 12.212 12.2155 9.14699 15.9965 9.14699V9.14699ZM15.9965 11.547C13.5411 11.547 11.5506 13.538 11.5506 15.994C11.5506 18.45 13.5411 20.441 15.9965 20.441C18.4518 20.441 20.4423 18.45 20.4423 15.994C20.4423 13.538 18.4518 11.547 15.9965 11.547ZM23.1016 7.27999C23.9854 7.27999 24.7012 7.99599 24.7012 8.87999C24.7012 9.76399 23.9854 10.48 23.1016 10.48C22.2178 10.48 21.502 9.76399 21.502 8.87999C21.502 7.99599 22.2178 7.27999 23.1016 7.27999V7.27999Z" fill="white"/>
</svg>
